<svg xmlns="http://www.w3.org/2000/svg" xmlns:xlink="http://www.w3.org/1999/xlink" width="500" zoomAndPan="magnify" viewBox="0 0 375 374.999991" height="500" preserveAspectRatio="xMidYMid meet" version="1.0"><defs><clipPath id="f97b9721d1"><path d="M 68.421875 68.421875 L 306.921875 68.421875 L 306.921875 306.921875 L 68.421875 306.921875 Z M 68.421875 68.421875 " clip-rule="nonzero"/></clipPath></defs><g clip-path="url(#f97b9721d1)"><path fill="#000000" d="M 187.671875 68.421875 C 121.917969 68.421875 68.421875 121.917969 68.421875 187.671875 C 68.421875 253.425781 121.917969 306.921875 187.671875 306.921875 C 253.425781 306.921875 306.921875 253.425781 306.921875 187.671875 C 306.921875 121.917969 253.425781 68.421875 187.671875 68.421875 Z M 187.671875 291.023438 C 130.683594 291.023438 84.320312 244.660156 84.320312 187.671875 C 84.320312 130.683594 130.683594 84.320312 187.671875 84.320312 C 244.660156 84.320312 291.023438 130.683594 291.023438 187.671875 C 291.023438 244.660156 244.660156 291.023438 187.671875 291.023438 Z M 187.671875 291.023438 " fill-opacity="1" fill-rule="nonzero"/></g><path fill="#000000" d="M 220.6875 179.722656 L 195.621094 179.722656 L 195.621094 154.65625 C 195.621094 150.265625 192.0625 146.707031 187.671875 146.707031 C 183.28125 146.707031 179.722656 150.265625 179.722656 154.65625 L 179.722656 179.722656 L 154.65625 179.722656 C 150.265625 179.722656 146.707031 183.28125 146.707031 187.671875 C 146.707031 192.0625 150.265625 195.621094 154.65625 195.621094 L 179.722656 195.621094 L 179.722656 220.6875 C 179.722656 225.078125 183.28125 228.636719 187.671875 228.636719 C 192.0625 228.636719 195.621094 225.078125 195.621094 220.6875 L 195.621094 195.621094 L 220.6875 195.621094 C 225.078125 195.621094 228.636719 192.0625 228.636719 187.671875 C 228.636719 183.28125 225.078125 179.722656 220.6875 179.722656 Z M 220.6875 179.722656 " fill-opacity="1" fill-rule="nonzero"/></svg>