<svg xmlns="http://www.w3.org/2000/svg" xmlns:xlink="http://www.w3.org/1999/xlink" width="500" zoomAndPan="magnify" viewBox="0 0 375 374.999991" height="500" preserveAspectRatio="xMidYMid meet" version="1.0"><defs><clipPath id="c460b95c8f"><path d="M 57.8125 186 L 317 186 L 317 314.230469 L 57.8125 314.230469 Z M 57.8125 186 " clip-rule="nonzero"/></clipPath><clipPath id="982573d397"><path d="M 147 60.730469 L 275 60.730469 L 275 189 L 147 189 Z M 147 60.730469 " clip-rule="nonzero"/></clipPath></defs><g clip-path="url(#c460b95c8f)"><path fill="#000000" d="M 67.441406 314.441406 L 106.933594 314.441406 C 107.566406 314.441406 108.191406 314.378906 108.8125 314.253906 C 109.433594 314.132812 110.035156 313.949219 110.617188 313.707031 C 111.203125 313.464844 111.757812 313.167969 112.285156 312.816406 C 112.808594 312.464844 113.296875 312.066406 113.742188 311.621094 C 114.191406 311.175781 114.589844 310.6875 114.941406 310.164062 C 115.292969 309.636719 115.589844 309.082031 115.832031 308.5 C 116.074219 307.917969 116.257812 307.316406 116.378906 306.695312 C 116.503906 306.078125 116.566406 305.449219 116.566406 304.820312 L 116.566406 293.125 L 126.539062 290.496094 C 132.199219 289.003906 137.953125 288.316406 143.804688 288.425781 C 149.65625 288.535156 155.382812 289.445312 160.980469 291.148438 L 168.007812 293.285156 C 170.722656 294.109375 173.480469 294.769531 176.277344 295.269531 C 179.074219 295.765625 181.890625 296.097656 184.726562 296.257812 C 187.5625 296.421875 190.398438 296.417969 193.234375 296.246094 C 196.070312 296.074219 198.886719 295.734375 201.679688 295.226562 C 204.476562 294.71875 207.230469 294.050781 209.945312 293.214844 C 212.664062 292.382812 215.320312 291.390625 217.917969 290.242188 C 220.515625 289.09375 223.035156 287.796875 225.480469 286.347656 C 227.921875 284.898438 230.273438 283.3125 232.527344 281.585938 L 308.953125 223.003906 C 309.488281 222.59375 310.003906 222.15625 310.496094 221.695312 C 310.988281 221.230469 311.457031 220.746094 311.902344 220.234375 C 312.34375 219.726562 312.761719 219.195312 313.152344 218.644531 C 313.542969 218.089844 313.90625 217.523438 314.242188 216.933594 C 314.574219 216.347656 314.878906 215.742188 315.152344 215.125 C 315.425781 214.507812 315.667969 213.878906 315.878906 213.234375 C 316.085938 212.59375 316.265625 211.941406 316.410156 211.28125 C 316.554688 210.621094 316.667969 209.957031 316.746094 209.285156 C 316.824219 208.613281 316.867188 207.9375 316.878906 207.261719 C 316.890625 206.585938 316.867188 205.914062 316.8125 205.238281 C 316.753906 204.566406 316.664062 203.898438 316.539062 203.234375 C 316.417969 202.566406 316.261719 201.910156 316.070312 201.261719 C 315.882812 200.613281 315.660156 199.976562 315.40625 199.351562 C 315.152344 198.722656 314.871094 198.109375 314.554688 197.511719 C 314.242188 196.914062 313.898438 196.332031 313.523438 195.769531 C 313.152344 195.207031 312.75 194.660156 312.324219 194.136719 C 311.550781 193.191406 310.699219 192.324219 309.769531 191.53125 C 308.839844 190.742188 307.847656 190.039062 306.789062 189.425781 C 305.734375 188.816406 304.628906 188.300781 303.480469 187.886719 C 302.332031 187.476562 301.15625 187.167969 299.949219 186.96875 C 298.746094 186.765625 297.53125 186.675781 296.308594 186.695312 C 295.089844 186.710938 293.878906 186.839844 292.679688 187.074219 C 291.484375 187.3125 290.316406 187.652344 289.179688 188.101562 C 288.042969 188.546875 286.953125 189.09375 285.917969 189.734375 L 238.792969 219.007812 C 238.304688 217.390625 237.613281 215.867188 236.710938 214.4375 C 235.8125 213.007812 234.734375 211.726562 233.488281 210.589844 C 232.238281 209.449219 230.859375 208.5 229.351562 207.738281 C 227.84375 206.972656 226.261719 206.425781 224.605469 206.089844 L 186.71875 198.585938 C 179.945312 197.234375 173.164062 197.199219 166.375 198.472656 L 116.566406 207.75 L 116.566406 198.382812 C 116.566406 197.75 116.503906 197.125 116.378906 196.507812 C 116.257812 195.886719 116.074219 195.285156 115.832031 194.703125 C 115.589844 194.117188 115.292969 193.5625 114.941406 193.039062 C 114.589844 192.511719 114.191406 192.027344 113.742188 191.578125 C 113.296875 191.132812 112.808594 190.734375 112.285156 190.382812 C 111.757812 190.03125 111.203125 189.734375 110.621094 189.492188 C 110.035156 189.25 109.433594 189.066406 108.8125 188.945312 C 108.195312 188.820312 107.566406 188.757812 106.933594 188.757812 L 67.441406 188.757812 C 66.808594 188.757812 66.183594 188.820312 65.5625 188.945312 C 64.941406 189.066406 64.339844 189.25 63.757812 189.492188 C 63.171875 189.734375 62.617188 190.03125 62.09375 190.382812 C 61.566406 190.734375 61.082031 191.132812 60.632812 191.582031 C 60.1875 192.027344 59.789062 192.511719 59.4375 193.039062 C 59.085938 193.5625 58.789062 194.117188 58.546875 194.703125 C 58.304688 195.285156 58.121094 195.886719 57.996094 196.507812 C 57.875 197.125 57.8125 197.75 57.8125 198.382812 L 57.8125 304.820312 C 57.8125 305.449219 57.875 306.074219 57.996094 306.695312 C 58.121094 307.316406 58.304688 307.917969 58.546875 308.5 C 58.789062 309.082031 59.085938 309.636719 59.4375 310.164062 C 59.789062 310.6875 60.1875 311.171875 60.632812 311.621094 C 61.082031 312.066406 61.566406 312.464844 62.09375 312.816406 C 62.617188 313.167969 63.171875 313.464844 63.757812 313.707031 C 64.339844 313.949219 64.941406 314.132812 65.5625 314.253906 C 66.183594 314.378906 66.808594 314.441406 67.441406 314.441406 Z M 167.953125 206.953125 C 173.65625 205.886719 179.355469 205.917969 185.042969 207.050781 L 222.925781 214.554688 C 223.546875 214.679688 224.148438 214.859375 224.734375 215.097656 C 225.320312 215.335938 225.882812 215.628906 226.414062 215.972656 C 226.945312 216.3125 227.441406 216.703125 227.898438 217.140625 C 228.355469 217.578125 228.769531 218.054688 229.136719 218.566406 C 229.507812 219.082031 229.824219 219.628906 230.089844 220.203125 C 230.355469 220.777344 230.5625 221.371094 230.71875 221.984375 C 230.871094 222.597656 230.964844 223.222656 231 223.851562 C 231.035156 224.484375 231.011719 225.113281 230.929688 225.742188 C 230.851562 226.359375 230.71875 226.96875 230.527344 227.5625 C 230.335938 228.15625 230.09375 228.726562 229.792969 229.273438 C 229.496094 229.824219 229.148438 230.339844 228.75 230.820312 C 228.355469 231.304688 227.917969 231.746094 227.4375 232.144531 C 226.960938 232.546875 226.445312 232.898438 225.902344 233.199219 C 225.355469 233.503906 224.785156 233.753906 224.191406 233.949219 C 223.601562 234.144531 222.992188 234.285156 222.375 234.367188 C 221.753906 234.449219 221.132812 234.472656 220.511719 234.4375 L 168.285156 232.046875 C 168.003906 232.035156 167.722656 232.054688 167.445312 232.101562 C 167.167969 232.144531 166.894531 232.21875 166.628906 232.316406 C 166.367188 232.414062 166.113281 232.535156 165.871094 232.683594 C 165.628906 232.828125 165.40625 232.996094 165.195312 233.1875 C 164.988281 233.378906 164.800781 233.585938 164.632812 233.8125 C 164.464844 234.039062 164.316406 234.28125 164.195312 234.535156 C 164.074219 234.789062 163.976562 235.050781 163.90625 235.324219 C 163.835938 235.597656 163.792969 235.875 163.773438 236.15625 C 163.761719 236.441406 163.777344 236.722656 163.820312 237.003906 C 163.859375 237.28125 163.929688 237.554688 164.027344 237.824219 C 164.125 238.089844 164.246094 238.34375 164.390625 238.585938 C 164.539062 238.828125 164.707031 239.054688 164.898438 239.265625 C 165.089844 239.472656 165.296875 239.660156 165.527344 239.832031 C 165.753906 240 165.996094 240.140625 166.253906 240.261719 C 166.511719 240.382812 166.777344 240.476562 167.050781 240.546875 C 167.328125 240.613281 167.605469 240.652344 167.890625 240.667969 L 220.136719 243.058594 C 220.433594 243.058594 220.730469 243.078125 221.023438 243.078125 C 222.050781 243.082031 223.074219 242.996094 224.085938 242.828125 C 225.101562 242.660156 226.09375 242.410156 227.0625 242.078125 C 228.035156 241.742188 228.972656 241.332031 229.878906 240.84375 C 230.78125 240.355469 231.636719 239.792969 232.445312 239.160156 C 233.257812 238.53125 234.007812 237.835938 234.703125 237.078125 C 235.398438 236.320312 236.023438 235.511719 236.582031 234.652344 C 237.144531 233.789062 237.625 232.886719 238.035156 231.945312 C 238.445312 231.003906 238.773438 230.035156 239.019531 229.039062 L 290.492188 197.0625 C 291.121094 196.671875 291.78125 196.347656 292.472656 196.082031 C 293.164062 195.820312 293.875 195.621094 294.601562 195.492188 C 295.332031 195.363281 296.066406 195.304688 296.804688 195.316406 C 297.546875 195.328125 298.277344 195.410156 299 195.5625 C 299.726562 195.710938 300.429688 195.929688 301.113281 196.214844 C 301.792969 196.5 302.445312 196.847656 303.058594 197.257812 C 303.675781 197.667969 304.25 198.128906 304.777344 198.648438 C 305.304688 199.164062 305.777344 199.730469 306.199219 200.335938 C 306.621094 200.945312 306.976562 201.589844 307.277344 202.265625 C 307.574219 202.941406 307.804688 203.640625 307.96875 204.363281 C 308.132812 205.085938 308.226562 205.8125 308.25 206.554688 C 308.277344 207.292969 308.230469 208.027344 308.117188 208.757812 C 308 209.488281 307.816406 210.199219 307.5625 210.894531 C 307.3125 211.589844 306.996094 212.257812 306.617188 212.890625 C 306.238281 213.527344 305.804688 214.121094 305.3125 214.671875 C 304.820312 215.222656 304.28125 215.726562 303.691406 216.175781 L 227.269531 274.753906 C 225.28125 276.273438 223.214844 277.667969 221.066406 278.941406 C 218.914062 280.210938 216.695312 281.351562 214.410156 282.363281 C 212.125 283.371094 209.789062 284.242188 207.398438 284.976562 C 205.011719 285.707031 202.585938 286.296875 200.128906 286.742188 C 197.667969 287.1875 195.191406 287.484375 192.699219 287.636719 C 190.203125 287.789062 187.710938 287.789062 185.214844 287.648438 C 182.71875 287.503906 180.242188 287.210938 177.78125 286.773438 C 175.324219 286.335938 172.898438 285.753906 170.507812 285.03125 L 163.476562 282.871094 C 157.113281 280.933594 150.605469 279.902344 143.953125 279.773438 C 137.296875 279.648438 130.757812 280.4375 124.324219 282.132812 L 116.550781 284.179688 L 116.550781 216.527344 Z M 66.445312 198.382812 C 66.445312 198.109375 66.542969 197.875 66.738281 197.679688 C 66.929688 197.484375 67.164062 197.386719 67.441406 197.386719 L 106.933594 197.386719 C 107.210938 197.386719 107.445312 197.484375 107.640625 197.679688 C 107.832031 197.875 107.929688 198.109375 107.933594 198.382812 L 107.933594 304.820312 C 107.929688 305.09375 107.832031 305.328125 107.640625 305.519531 C 107.445312 305.714844 107.210938 305.8125 106.933594 305.8125 L 67.441406 305.8125 C 67.308594 305.8125 67.183594 305.785156 67.058594 305.734375 C 66.9375 305.683594 66.832031 305.613281 66.738281 305.519531 C 66.644531 305.425781 66.574219 305.320312 66.523438 305.199219 C 66.472656 305.078125 66.445312 304.949219 66.445312 304.820312 Z M 66.445312 198.382812 " fill-opacity="1" fill-rule="nonzero"/></g><path fill="#000000" d="M 210.9375 98.339844 C 211.667969 98.339844 212.386719 98.410156 213.101562 98.554688 C 213.816406 98.695312 214.511719 98.90625 215.183594 99.1875 C 215.859375 99.464844 216.496094 99.804688 217.101562 100.210938 C 217.710938 100.617188 218.269531 101.074219 218.785156 101.589844 C 219.300781 102.105469 219.761719 102.664062 220.164062 103.269531 C 220.570312 103.875 220.914062 104.515625 221.191406 105.1875 C 221.472656 105.863281 221.683594 106.554688 221.824219 107.269531 C 221.96875 107.984375 222.039062 108.703125 222.039062 109.433594 C 222.039062 109.714844 222.066406 109.996094 222.121094 110.273438 C 222.175781 110.550781 222.257812 110.824219 222.367188 111.085938 C 222.476562 111.347656 222.609375 111.59375 222.765625 111.832031 C 222.925781 112.066406 223.101562 112.285156 223.304688 112.484375 C 223.503906 112.683594 223.722656 112.863281 223.957031 113.019531 C 224.195312 113.179688 224.441406 113.3125 224.703125 113.417969 C 224.964844 113.527344 225.238281 113.609375 225.515625 113.664062 C 225.792969 113.71875 226.074219 113.746094 226.355469 113.746094 C 226.640625 113.746094 226.921875 113.71875 227.199219 113.664062 C 227.476562 113.609375 227.746094 113.527344 228.007812 113.417969 C 228.269531 113.3125 228.519531 113.179688 228.753906 113.019531 C 228.992188 112.863281 229.210938 112.683594 229.410156 112.484375 C 229.609375 112.285156 229.789062 112.066406 229.945312 111.832031 C 230.105469 111.59375 230.238281 111.347656 230.347656 111.085938 C 230.453125 110.824219 230.535156 110.550781 230.589844 110.273438 C 230.648438 109.996094 230.675781 109.714844 230.675781 109.433594 C 230.671875 108.320312 230.578125 107.21875 230.386719 106.121094 C 230.199219 105.027344 229.921875 103.957031 229.550781 102.90625 C 229.179688 101.859375 228.726562 100.847656 228.183594 99.878906 C 227.644531 98.90625 227.027344 97.988281 226.328125 97.121094 C 225.632812 96.253906 224.871094 95.449219 224.039062 94.710938 C 223.207031 93.976562 222.316406 93.3125 221.375 92.722656 C 220.429688 92.136719 219.445312 91.632812 218.414062 91.210938 C 217.386719 90.789062 216.328125 90.457031 215.242188 90.214844 L 215.242188 83.089844 C 215.242188 82.804688 215.214844 82.527344 215.160156 82.246094 C 215.105469 81.96875 215.023438 81.699219 214.914062 81.4375 C 214.804688 81.175781 214.671875 80.925781 214.515625 80.691406 C 214.359375 80.457031 214.179688 80.238281 213.976562 80.039062 C 213.777344 79.835938 213.558594 79.660156 213.324219 79.5 C 213.089844 79.34375 212.839844 79.210938 212.578125 79.101562 C 212.316406 78.996094 212.046875 78.914062 211.765625 78.855469 C 211.488281 78.800781 211.207031 78.773438 210.925781 78.773438 C 210.640625 78.773438 210.359375 78.800781 210.082031 78.855469 C 209.804688 78.914062 209.535156 78.996094 209.273438 79.101562 C 209.011719 79.210938 208.761719 79.34375 208.527344 79.5 C 208.289062 79.660156 208.074219 79.835938 207.871094 80.039062 C 207.671875 80.238281 207.492188 80.457031 207.335938 80.691406 C 207.175781 80.925781 207.042969 81.175781 206.9375 81.4375 C 206.828125 81.699219 206.746094 81.96875 206.691406 82.246094 C 206.636719 82.527344 206.605469 82.804688 206.605469 83.089844 L 206.605469 90.222656 C 205.433594 90.484375 204.292969 90.851562 203.1875 91.324219 C 202.078125 91.796875 201.027344 92.367188 200.023438 93.03125 C 199.019531 93.695312 198.085938 94.445312 197.222656 95.28125 C 196.355469 96.117188 195.574219 97.023438 194.875 98.003906 C 194.175781 98.984375 193.574219 100.015625 193.0625 101.105469 C 192.554688 102.195312 192.148438 103.320312 191.84375 104.484375 C 191.542969 105.648438 191.347656 106.832031 191.261719 108.03125 C 191.171875 109.230469 191.195312 110.425781 191.328125 111.621094 C 191.460938 112.816406 191.703125 113.988281 192.046875 115.140625 C 192.394531 116.292969 192.84375 117.402344 193.394531 118.46875 C 193.945312 119.539062 194.589844 120.550781 195.324219 121.5 C 196.0625 122.453125 196.878906 123.328125 197.773438 124.132812 C 198.671875 124.933594 199.632812 125.648438 200.660156 126.273438 C 201.6875 126.898438 202.761719 127.425781 203.886719 127.855469 C 205.007812 128.285156 206.164062 128.609375 207.34375 128.828125 C 208.527344 129.046875 209.722656 129.15625 210.925781 129.15625 C 211.644531 129.171875 212.355469 129.253906 213.058594 129.40625 C 213.761719 129.558594 214.445312 129.777344 215.105469 130.0625 C 215.765625 130.347656 216.394531 130.695312 216.988281 131.101562 C 217.582031 131.507812 218.128906 131.96875 218.632812 132.480469 C 219.136719 132.996094 219.585938 133.554688 219.980469 134.152344 C 220.378906 134.753906 220.710938 135.386719 220.984375 136.054688 C 221.253906 136.71875 221.460938 137.40625 221.597656 138.113281 C 221.738281 138.816406 221.808594 139.53125 221.808594 140.25 C 221.808594 140.96875 221.738281 141.679688 221.597656 142.386719 C 221.460938 143.09375 221.253906 143.777344 220.984375 144.445312 C 220.710938 145.109375 220.378906 145.742188 219.980469 146.34375 C 219.585938 146.945312 219.136719 147.503906 218.632812 148.015625 C 218.128906 148.53125 217.582031 148.988281 216.988281 149.398438 C 216.394531 149.804688 215.765625 150.148438 215.105469 150.433594 C 214.445312 150.71875 213.761719 150.9375 213.058594 151.089844 C 212.355469 151.242188 211.644531 151.328125 210.925781 151.339844 L 210.894531 151.339844 L 210.921875 151.339844 C 210.191406 151.335938 209.472656 151.261719 208.761719 151.117188 C 208.046875 150.972656 207.355469 150.757812 206.683594 150.480469 C 206.011719 150.199219 205.375 149.855469 204.773438 149.449219 C 204.167969 149.042969 203.609375 148.582031 203.097656 148.066406 C 202.585938 147.550781 202.128906 146.988281 201.726562 146.382812 C 201.320312 145.777344 200.980469 145.140625 200.703125 144.46875 C 200.429688 143.796875 200.21875 143.101562 200.078125 142.390625 C 199.9375 141.675781 199.867188 140.957031 199.867188 140.230469 C 199.867188 139.945312 199.839844 139.664062 199.785156 139.386719 C 199.730469 139.109375 199.648438 138.839844 199.539062 138.578125 C 199.429688 138.316406 199.296875 138.066406 199.140625 137.832031 C 198.980469 137.597656 198.804688 137.378906 198.601562 137.179688 C 198.402344 136.976562 198.183594 136.800781 197.949219 136.640625 C 197.710938 136.484375 197.464844 136.351562 197.203125 136.242188 C 196.941406 136.132812 196.667969 136.050781 196.390625 135.996094 C 196.113281 135.941406 195.832031 135.914062 195.550781 135.914062 C 195.265625 135.914062 194.984375 135.941406 194.707031 135.996094 C 194.429688 136.050781 194.160156 136.132812 193.898438 136.242188 C 193.636719 136.351562 193.386719 136.484375 193.152344 136.640625 C 192.914062 136.800781 192.695312 136.976562 192.496094 137.179688 C 192.296875 137.378906 192.117188 137.597656 191.960938 137.832031 C 191.800781 138.066406 191.667969 138.316406 191.558594 138.578125 C 191.453125 138.839844 191.371094 139.109375 191.3125 139.386719 C 191.257812 139.664062 191.230469 139.945312 191.230469 140.230469 C 191.234375 141.339844 191.328125 142.441406 191.515625 143.535156 C 191.707031 144.628906 191.984375 145.699219 192.355469 146.75 C 192.722656 147.796875 193.179688 148.804688 193.71875 149.773438 C 194.257812 150.746094 194.875 151.664062 195.570312 152.53125 C 196.265625 153.398438 197.027344 154.199219 197.855469 154.9375 C 198.6875 155.675781 199.574219 156.335938 200.515625 156.925781 C 201.457031 157.515625 202.441406 158.019531 203.46875 158.441406 C 204.496094 158.863281 205.554688 159.195312 206.636719 159.441406 L 206.636719 166.597656 C 206.636719 166.882812 206.664062 167.164062 206.71875 167.441406 C 206.777344 167.71875 206.859375 167.988281 206.964844 168.25 C 207.074219 168.511719 207.207031 168.761719 207.363281 168.996094 C 207.523438 169.230469 207.703125 169.449219 207.902344 169.648438 C 208.101562 169.851562 208.320312 170.027344 208.554688 170.1875 C 208.792969 170.34375 209.039062 170.476562 209.304688 170.585938 C 209.566406 170.695312 209.835938 170.777344 210.113281 170.832031 C 210.390625 170.886719 210.671875 170.914062 210.957031 170.914062 C 211.238281 170.914062 211.519531 170.886719 211.796875 170.832031 C 212.074219 170.777344 212.34375 170.695312 212.609375 170.585938 C 212.871094 170.476562 213.117188 170.34375 213.355469 170.1875 C 213.589844 170.027344 213.808594 169.851562 214.007812 169.648438 C 214.207031 169.449219 214.386719 169.230469 214.546875 168.996094 C 214.703125 168.761719 214.835938 168.511719 214.945312 168.25 C 215.054688 167.988281 215.132812 167.71875 215.191406 167.441406 C 215.246094 167.164062 215.273438 166.882812 215.273438 166.597656 L 215.273438 159.464844 C 216.449219 159.203125 217.589844 158.835938 218.695312 158.363281 C 219.804688 157.894531 220.859375 157.324219 221.863281 156.660156 C 222.867188 155.996094 223.800781 155.246094 224.667969 154.410156 C 225.535156 153.574219 226.316406 152.667969 227.015625 151.6875 C 227.71875 150.710938 228.320312 149.675781 228.832031 148.585938 C 229.34375 147.496094 229.75 146.367188 230.054688 145.203125 C 230.355469 144.039062 230.550781 142.855469 230.640625 141.65625 C 230.726562 140.457031 230.703125 139.257812 230.570312 138.0625 C 230.4375 136.867188 230.199219 135.695312 229.851562 134.542969 C 229.503906 133.390625 229.054688 132.277344 228.5 131.210938 C 227.949219 130.140625 227.304688 129.128906 226.570312 128.175781 C 225.832031 127.226562 225.015625 126.347656 224.117188 125.546875 C 223.222656 124.742188 222.257812 124.03125 221.230469 123.402344 C 220.203125 122.777344 219.125 122.25 218 121.820312 C 216.875 121.394531 215.722656 121.070312 214.539062 120.851562 C 213.351562 120.632812 212.160156 120.527344 210.957031 120.527344 C 210.226562 120.527344 209.503906 120.457031 208.789062 120.3125 C 208.074219 120.171875 207.378906 119.960938 206.707031 119.683594 C 206.035156 119.402344 205.394531 119.0625 204.789062 118.65625 C 204.183594 118.253906 203.621094 117.792969 203.105469 117.277344 C 202.589844 116.761719 202.128906 116.203125 201.726562 115.597656 C 201.320312 114.992188 200.976562 114.351562 200.699219 113.679688 C 200.421875 113.003906 200.210938 112.3125 200.066406 111.597656 C 199.925781 110.882812 199.855469 110.160156 199.855469 109.433594 C 199.855469 108.703125 199.925781 107.984375 200.066406 107.269531 C 200.210938 106.554688 200.421875 105.859375 200.699219 105.1875 C 200.976562 104.515625 201.320312 103.875 201.726562 103.269531 C 202.128906 102.664062 202.589844 102.101562 203.105469 101.589844 C 203.621094 101.074219 204.183594 100.613281 204.789062 100.207031 C 205.394531 99.804688 206.035156 99.460938 206.707031 99.183594 C 207.378906 98.90625 208.074219 98.695312 208.789062 98.550781 C 209.503906 98.410156 210.226562 98.339844 210.957031 98.339844 Z M 210.9375 98.339844 " fill-opacity="1" fill-rule="nonzero"/><g clip-path="url(#982573d397)"><path fill="#000000" d="M 210.957031 60.949219 C 209.910156 60.949219 208.863281 60.972656 207.816406 61.027344 C 206.773438 61.078125 205.730469 61.152344 204.6875 61.257812 C 203.648438 61.359375 202.609375 61.488281 201.574219 61.640625 C 200.539062 61.792969 199.507812 61.972656 198.480469 62.175781 C 197.457031 62.378906 196.4375 62.609375 195.421875 62.863281 C 194.40625 63.117188 193.398438 63.398438 192.394531 63.699219 C 191.394531 64.003906 190.402344 64.332031 189.417969 64.683594 C 188.429688 65.035156 187.457031 65.414062 186.488281 65.8125 C 185.523438 66.210938 184.566406 66.636719 183.621094 67.082031 C 182.675781 67.53125 181.738281 68 180.816406 68.492188 C 179.894531 68.984375 178.984375 69.5 178.085938 70.039062 C 177.1875 70.578125 176.304688 71.136719 175.433594 71.714844 C 174.566406 72.296875 173.710938 72.898438 172.871094 73.523438 C 172.03125 74.144531 171.203125 74.789062 170.394531 75.453125 C 169.585938 76.117188 168.796875 76.796875 168.019531 77.5 C 167.246094 78.203125 166.488281 78.921875 165.746094 79.664062 C 165.007812 80.402344 164.285156 81.160156 163.582031 81.933594 C 162.878906 82.707031 162.199219 83.5 161.535156 84.308594 C 160.871094 85.117188 160.226562 85.941406 159.601562 86.78125 C 158.980469 87.621094 158.378906 88.476562 157.796875 89.34375 C 157.214844 90.214844 156.65625 91.097656 156.117188 91.996094 C 155.578125 92.890625 155.0625 93.800781 154.570312 94.722656 C 154.078125 95.644531 153.605469 96.578125 153.160156 97.523438 C 152.710938 98.46875 152.289062 99.425781 151.886719 100.390625 C 151.488281 101.355469 151.109375 102.332031 150.757812 103.316406 C 150.40625 104.300781 150.078125 105.292969 149.773438 106.292969 C 149.472656 107.296875 149.191406 108.304688 148.9375 109.316406 C 148.683594 110.332031 148.453125 111.351562 148.25 112.378906 C 148.046875 113.402344 147.867188 114.433594 147.714844 115.46875 C 147.558594 116.5 147.433594 117.539062 147.328125 118.578125 C 147.226562 119.621094 147.148438 120.664062 147.097656 121.707031 C 147.046875 122.75 147.023438 123.796875 147.023438 124.84375 C 147.023438 125.886719 147.046875 126.933594 147.097656 127.976562 C 147.148438 129.019531 147.226562 130.0625 147.328125 131.105469 C 147.433594 132.144531 147.558594 133.183594 147.714844 134.21875 C 147.867188 135.25 148.046875 136.28125 148.25 137.308594 C 148.453125 138.332031 148.683594 139.351562 148.9375 140.367188 C 149.191406 141.382812 149.472656 142.386719 149.773438 143.390625 C 150.078125 144.390625 150.40625 145.382812 150.757812 146.367188 C 151.109375 147.351562 151.488281 148.328125 151.886719 149.292969 C 152.289062 150.257812 152.710938 151.214844 153.160156 152.160156 C 153.605469 153.105469 154.078125 154.039062 154.570312 154.960938 C 155.0625 155.882812 155.578125 156.792969 156.117188 157.691406 C 156.65625 158.585938 157.214844 159.46875 157.796875 160.339844 C 158.378906 161.207031 158.980469 162.0625 159.601562 162.902344 C 160.226562 163.742188 160.871094 164.566406 161.535156 165.375 C 162.199219 166.183594 162.878906 166.976562 163.582031 167.75 C 164.285156 168.523438 165.007812 169.28125 165.746094 170.019531 C 166.488281 170.761719 167.246094 171.480469 168.019531 172.183594 C 168.796875 172.886719 169.585938 173.570312 170.394531 174.230469 C 171.203125 174.894531 172.03125 175.539062 172.871094 176.160156 C 173.710938 176.785156 174.566406 177.386719 175.433594 177.96875 C 176.304688 178.546875 177.1875 179.105469 178.085938 179.644531 C 178.984375 180.183594 179.894531 180.699219 180.816406 181.191406 C 181.738281 181.683594 182.675781 182.152344 183.621094 182.601562 C 184.566406 183.046875 185.523438 183.472656 186.488281 183.871094 C 187.457031 184.273438 188.429688 184.648438 189.417969 185 C 190.402344 185.351562 191.394531 185.679688 192.394531 185.984375 C 193.398438 186.289062 194.40625 186.566406 195.421875 186.820312 C 196.4375 187.074219 197.457031 187.304688 198.480469 187.507812 C 199.507812 187.710938 200.539062 187.890625 201.574219 188.042969 C 202.609375 188.195312 203.648438 188.324219 204.6875 188.425781 C 205.730469 188.53125 206.773438 188.605469 207.816406 188.65625 C 208.863281 188.710938 209.910156 188.734375 210.957031 188.734375 C 212 188.734375 213.046875 188.710938 214.09375 188.65625 C 215.136719 188.605469 216.179688 188.53125 217.222656 188.425781 C 218.261719 188.324219 219.300781 188.195312 220.335938 188.042969 C 221.371094 187.890625 222.402344 187.710938 223.429688 187.507812 C 224.453125 187.304688 225.476562 187.074219 226.488281 186.820312 C 227.503906 186.566406 228.511719 186.289062 229.515625 185.984375 C 230.515625 185.679688 231.507812 185.351562 232.492188 185 C 233.480469 184.648438 234.453125 184.273438 235.421875 183.871094 C 236.386719 183.472656 237.34375 183.046875 238.289062 182.601562 C 239.234375 182.152344 240.171875 181.683594 241.09375 181.191406 C 242.015625 180.699219 242.925781 180.183594 243.824219 179.644531 C 244.722656 179.105469 245.605469 178.546875 246.476562 177.96875 C 247.34375 177.386719 248.199219 176.785156 249.039062 176.160156 C 249.882812 175.539062 250.707031 174.894531 251.515625 174.230469 C 252.324219 173.570312 253.113281 172.886719 253.890625 172.183594 C 254.664062 171.480469 255.421875 170.761719 256.164062 170.019531 C 256.902344 169.28125 257.625 168.523438 258.328125 167.75 C 259.03125 166.976562 259.710938 166.183594 260.375 165.375 C 261.039062 164.566406 261.683594 163.742188 262.308594 162.902344 C 262.929688 162.0625 263.53125 161.207031 264.113281 160.339844 C 264.695312 159.46875 265.253906 158.585938 265.792969 157.691406 C 266.332031 156.792969 266.847656 155.882812 267.339844 154.960938 C 267.832031 154.039062 268.304688 153.105469 268.75 152.160156 C 269.199219 151.214844 269.621094 150.257812 270.023438 149.292969 C 270.421875 148.328125 270.800781 147.351562 271.152344 146.367188 C 271.503906 145.382812 271.832031 144.390625 272.136719 143.390625 C 272.441406 142.386719 272.71875 141.382812 272.972656 140.367188 C 273.226562 139.351562 273.457031 138.332031 273.660156 137.308594 C 273.863281 136.28125 274.042969 135.25 274.195312 134.21875 C 274.351562 133.183594 274.480469 132.144531 274.582031 131.105469 C 274.683594 130.0625 274.761719 129.019531 274.8125 127.976562 C 274.863281 126.933594 274.890625 125.886719 274.890625 124.84375 C 274.886719 123.796875 274.859375 122.75 274.808594 121.707031 C 274.757812 120.664062 274.679688 119.621094 274.574219 118.582031 C 274.472656 117.542969 274.34375 116.503906 274.1875 115.46875 C 274.035156 114.4375 273.855469 113.40625 273.648438 112.382812 C 273.445312 111.355469 273.214844 110.335938 272.960938 109.324219 C 272.703125 108.308594 272.425781 107.300781 272.121094 106.300781 C 271.816406 105.300781 271.488281 104.308594 271.132812 103.328125 C 270.78125 102.34375 270.40625 101.367188 270.003906 100.402344 C 269.601562 99.4375 269.179688 98.480469 268.730469 97.535156 C 268.285156 96.589844 267.8125 95.660156 267.320312 94.738281 C 266.824219 93.816406 266.308594 92.90625 265.773438 92.007812 C 265.234375 91.113281 264.675781 90.230469 264.09375 89.359375 C 263.511719 88.492188 262.910156 87.636719 262.285156 86.796875 C 261.664062 85.957031 261.019531 85.136719 260.355469 84.328125 C 259.691406 83.519531 259.007812 82.726562 258.304688 81.953125 C 257.605469 81.179688 256.882812 80.421875 256.144531 79.683594 C 255.402344 78.945312 254.644531 78.222656 253.871094 77.519531 C 253.097656 76.820312 252.304688 76.136719 251.496094 75.472656 C 250.6875 74.808594 249.863281 74.167969 249.023438 73.542969 C 248.183594 72.921875 247.328125 72.320312 246.457031 71.738281 C 245.589844 71.15625 244.707031 70.597656 243.808594 70.058594 C 242.910156 69.523438 242.003906 69.007812 241.078125 68.511719 C 240.15625 68.019531 239.222656 67.550781 238.277344 67.101562 C 237.332031 66.65625 236.378906 66.230469 235.410156 65.832031 C 234.445312 65.429688 233.46875 65.054688 232.484375 64.699219 C 231.5 64.347656 230.507812 64.019531 229.507812 63.714844 C 228.503906 63.410156 227.5 63.132812 226.484375 62.878906 C 225.46875 62.621094 224.449219 62.394531 223.421875 62.1875 C 222.398438 61.984375 221.367188 61.804688 220.332031 61.648438 C 219.296875 61.496094 218.261719 61.367188 217.21875 61.261719 C 216.179688 61.160156 215.136719 61.082031 214.089844 61.027344 C 213.046875 60.976562 212 60.949219 210.957031 60.949219 Z M 210.957031 180.101562 C 209.144531 180.101562 207.335938 180.011719 205.535156 179.835938 C 203.734375 179.65625 201.941406 179.390625 200.167969 179.039062 C 198.390625 178.6875 196.636719 178.246094 194.902344 177.722656 C 193.167969 177.195312 191.464844 176.585938 189.792969 175.894531 C 188.121094 175.199219 186.484375 174.429688 184.886719 173.574219 C 183.289062 172.722656 181.738281 171.792969 180.234375 170.785156 C 178.726562 169.78125 177.273438 168.703125 175.875 167.554688 C 174.472656 166.40625 173.132812 165.195312 171.851562 163.914062 C 170.574219 162.632812 169.359375 161.292969 168.207031 159.894531 C 167.058594 158.496094 165.980469 157.042969 164.976562 155.539062 C 163.96875 154.035156 163.039062 152.484375 162.1875 150.886719 C 161.332031 149.292969 160.558594 147.65625 159.867188 145.984375 C 159.171875 144.3125 158.5625 142.609375 158.039062 140.878906 C 157.511719 139.144531 157.074219 137.394531 156.71875 135.617188 C 156.367188 133.84375 156.101562 132.054688 155.921875 130.253906 C 155.746094 128.453125 155.65625 126.644531 155.65625 124.835938 C 155.65625 123.027344 155.746094 121.21875 155.921875 119.417969 C 156.101562 117.617188 156.367188 115.828125 156.71875 114.054688 C 157.074219 112.28125 157.511719 110.527344 158.039062 108.792969 C 158.566406 107.0625 159.175781 105.359375 159.867188 103.6875 C 160.558594 102.015625 161.332031 100.382812 162.1875 98.785156 C 163.042969 97.1875 163.972656 95.636719 164.976562 94.132812 C 165.984375 92.628906 167.0625 91.175781 168.210938 89.777344 C 169.359375 88.378906 170.574219 87.039062 171.855469 85.757812 C 173.136719 84.480469 174.476562 83.265625 175.875 82.117188 C 177.277344 80.96875 178.730469 79.890625 180.234375 78.886719 C 181.742188 77.882812 183.292969 76.953125 184.890625 76.097656 C 186.488281 75.246094 188.121094 74.472656 189.796875 73.78125 C 191.46875 73.085938 193.171875 72.480469 194.90625 71.953125 C 196.640625 71.429688 198.394531 70.988281 200.167969 70.636719 C 201.945312 70.28125 203.734375 70.019531 205.539062 69.839844 C 207.339844 69.664062 209.148438 69.574219 210.957031 69.574219 C 212.769531 69.574219 214.574219 69.664062 216.378906 69.839844 C 218.179688 70.019531 219.96875 70.285156 221.746094 70.636719 C 223.523438 70.992188 225.277344 71.429688 227.011719 71.957031 C 228.742188 72.480469 230.445312 73.089844 232.121094 73.78125 C 233.792969 74.476562 235.429688 75.25 237.027344 76.101562 C 238.621094 76.953125 240.175781 77.882812 241.679688 78.890625 C 243.1875 79.894531 244.640625 80.972656 246.039062 82.121094 C 247.4375 83.269531 248.777344 84.484375 250.058594 85.761719 C 251.339844 87.042969 252.554688 88.382812 253.703125 89.78125 C 254.851562 91.179688 255.929688 92.632812 256.9375 94.136719 C 257.941406 95.644531 258.871094 97.195312 259.726562 98.789062 C 260.578125 100.386719 261.351562 102.019531 262.046875 103.691406 C 262.738281 105.367188 263.347656 107.066406 263.875 108.800781 C 264.398438 110.53125 264.839844 112.285156 265.191406 114.058594 C 265.542969 115.835938 265.808594 117.625 265.988281 119.425781 C 266.164062 121.226562 266.253906 123.03125 266.253906 124.84375 C 266.25 126.652344 266.160156 128.457031 265.980469 130.257812 C 265.800781 132.058594 265.535156 133.84375 265.179688 135.617188 C 264.824219 137.394531 264.382812 139.144531 263.859375 140.875 C 263.332031 142.605469 262.71875 144.308594 262.027344 145.980469 C 261.332031 147.652344 260.558594 149.285156 259.703125 150.878906 C 258.851562 152.472656 257.921875 154.023438 256.914062 155.527344 C 255.90625 157.03125 254.828125 158.484375 253.679688 159.882812 C 252.53125 161.28125 251.316406 162.617188 250.039062 163.898438 C 248.757812 165.175781 247.417969 166.390625 246.019531 167.539062 C 244.617188 168.6875 243.167969 169.765625 241.660156 170.769531 C 240.15625 171.773438 238.605469 172.703125 237.007812 173.558594 C 235.414062 174.410156 233.777344 175.183594 232.105469 175.878906 C 230.433594 176.570312 228.730469 177.179688 227 177.707031 C 225.269531 178.234375 223.515625 178.675781 221.738281 179.027344 C 219.964844 179.382812 218.175781 179.648438 216.375 179.828125 C 214.570312 180.007812 212.765625 180.097656 210.957031 180.101562 Z M 210.957031 180.101562 " fill-opacity="1" fill-rule="nonzero"/></g></svg>